<?xml version="1.0" encoding="UTF-8"?>
<!DOCTYPE svg PUBLIC "-//W3C//DTD SVG 1.1//EN" "http://www.w3.org/Graphics/SVG/1.1/DTD/svg11.dtd">
<svg xmlns="http://www.w3.org/2000/svg" version="1.1" width="310px" height="337px" style="shape-rendering:geometricPrecision; text-rendering:geometricPrecision; image-rendering:optimizeQuality; fill-rule:evenodd; clip-rule:evenodd" xmlns:xlink="http://www.w3.org/1999/xlink">
<g><path style="opacity:1" fill="#08090a" d="M 140.5,19.5 C 164.226,23.5098 187.892,27.8432 211.5,32.5C 212.551,33.2223 213.218,34.2223 213.5,35.5C 209.573,48.2807 205.24,60.9474 200.5,73.5C 206.113,75.0447 211.78,76.5447 217.5,78C 225.485,82.6845 225.485,87.1845 217.5,91.5C 189.421,95.1703 162.087,92.3369 135.5,83C 128.396,80.8737 122.896,76.7071 119,70.5C 117.963,63.395 121.13,60.395 128.5,61.5C 130.621,61.3253 132.621,61.6586 134.5,62.5C 134.742,66.166 136.075,69.3327 138.5,72C 156.62,80.279 175.62,83.6123 195.5,82C 198.069,79.8123 199.403,76.979 199.5,73.5C 186.937,73.8872 174.603,72.5538 162.5,69.5C 161.695,59.1914 162.195,48.8581 164,38.5C 164.421,34.3555 165.588,30.5221 167.5,27C 159.474,25.4984 151.474,23.9984 143.5,22.5C 143.5,36.1667 143.5,49.8333 143.5,63.5C 140.55,62.6916 137.883,61.3582 135.5,59.5C 135.5,46.1667 135.5,32.8333 135.5,19.5C 137.167,19.5 138.833,19.5 140.5,19.5 Z"/></g>
<g><path style="opacity:1" fill="#0f1113" d="M 162.5,69.5 C 155.82,68.2716 149.486,66.2716 143.5,63.5C 143.5,49.8333 143.5,36.1667 143.5,22.5C 151.474,23.9984 159.474,25.4984 167.5,27C 165.588,30.5221 164.421,34.3555 164,38.5C 162.195,48.8581 161.695,59.1914 162.5,69.5 Z"/></g>
<g><path style="opacity:0.165" fill="#cbcbcb" d="M 211.5,32.5 C 212.5,32.5 213.5,32.5 214.5,32.5C 214.737,33.791 214.404,34.791 213.5,35.5C 213.218,34.2223 212.551,33.2223 211.5,32.5 Z"/></g>
<g><path style="opacity:0.406" fill="#7f7f7f" d="M 140.5,19.5 C 138.833,19.5 137.167,19.5 135.5,19.5C 135.5,32.8333 135.5,46.1667 135.5,59.5C 135.737,60.791 135.404,61.791 134.5,62.5C 134.5,47.8333 134.5,33.1667 134.5,18.5C 136.735,18.2053 138.735,18.5386 140.5,19.5 Z"/></g>
<g><path style="opacity:1" fill="#1f2223" d="M 135.5,59.5 C 137.883,61.3582 140.55,62.6916 143.5,63.5C 149.486,66.2716 155.82,68.2716 162.5,69.5C 174.603,72.5538 186.937,73.8872 199.5,73.5C 199.403,76.979 198.069,79.8123 195.5,82C 175.62,83.6123 156.62,80.279 138.5,72C 136.075,69.3327 134.742,66.166 134.5,62.5C 135.404,61.791 135.737,60.791 135.5,59.5 Z"/></g>
<g><path style="opacity:0.995" fill="#1a1a1b" d="M 128.5,61.5 C 121.13,60.395 117.963,63.395 119,70.5C 122.896,76.7071 128.396,80.8737 135.5,83C 162.087,92.3369 189.421,95.1703 217.5,91.5C 211.206,94.1645 204.54,95.8312 197.5,96.5C 196.675,98.8013 196.008,101.135 195.5,103.5C 194.243,106.096 193.076,108.763 192,111.5C 192.549,106.895 193.049,102.229 193.5,97.5C 175.202,96.1181 156.868,93.1181 138.5,88.5C 137.353,88.8178 136.519,89.4844 136,90.5C 135.954,96.3507 134.954,102.017 133,107.5C 132.667,105.167 132.333,102.833 132,100.5C 131.28,98.9443 130.113,97.9443 128.5,97.5C 128.5,96.8333 128.167,96.5 127.5,96.5C 127.824,92.4454 127.491,88.4454 126.5,84.5C 119.691,82.176 114.191,78.176 110,72.5C 107.339,67.7231 108.172,63.8897 112.5,61C 118.016,60.1826 123.35,60.3493 128.5,61.5 Z"/></g>
<g><path style="opacity:0.998" fill="#b27f64" d="M 193.5,97.5 C 190.287,97.19 187.287,97.5233 184.5,98.5C 180.731,98.244 177.064,98.5773 173.5,99.5C 170.048,98.1496 166.381,97.6496 162.5,98C 163.943,104.862 163.777,111.695 162,118.5C 161.667,113.833 161.333,109.167 161,104.5C 160.047,106.373 158.88,106.706 157.5,105.5C 157.557,104.391 157.89,103.391 158.5,102.5C 158.443,101.391 158.11,100.391 157.5,99.5C 161.81,101.224 162.476,100.224 159.5,96.5C 154.516,94.7344 149.516,94.4011 144.5,95.5C 143.686,93.7274 142.352,93.2274 140.5,94C 139.409,96.0639 139.242,98.2305 140,100.5C 141.558,102.359 143.391,103.859 145.5,105C 143.152,105.11 141.652,106.277 141,108.5C 141.115,113.593 139.782,118.26 137,122.5C 134.899,128.932 135.065,135.266 137.5,141.5C 136.637,140.537 135.97,140.537 135.5,141.5C 137.314,149.443 142.314,154.277 150.5,156C 158.2,157.334 165.533,156.334 172.5,153C 174.041,151.629 175.375,150.129 176.5,148.5C 176.973,147.094 177.973,146.427 179.5,146.5C 176.366,156.969 169.366,162.636 158.5,163.5C 158.5,164.833 158.5,166.167 158.5,167.5C 159.791,167.263 160.791,167.596 161.5,168.5C 159.833,168.5 158.167,168.5 156.5,168.5C 156.5,166.833 156.5,165.167 156.5,163.5C 146.249,163.392 139.082,158.725 135,149.5C 134.115,146.048 133.282,142.714 132.5,139.5C 133.773,136.603 133.439,133.937 131.5,131.5C 131.795,129.265 131.461,127.265 130.5,125.5C 130.354,121.481 130.021,117.481 129.5,113.5C 128.325,113.719 127.325,113.386 126.5,112.5C 127.469,110.427 128.135,108.261 128.5,106C 127.39,103.001 127.39,100.168 128.5,97.5C 130.113,97.9443 131.28,98.9443 132,100.5C 132.333,102.833 132.667,105.167 133,107.5C 134.954,102.017 135.954,96.3507 136,90.5C 136.519,89.4844 137.353,88.8178 138.5,88.5C 156.868,93.1181 175.202,96.1181 193.5,97.5 Z"/></g>
<g><path style="opacity:1" fill="#140f0c" d="M 157.5,99.5 C 152.838,98.2417 148.171,98.2417 143.5,99.5C 141.191,98.0127 141.524,96.6794 144.5,95.5C 149.516,94.4011 154.516,94.7344 159.5,96.5C 162.476,100.224 161.81,101.224 157.5,99.5 Z"/></g>
<g><path style="opacity:1" fill="#cda185" d="M 144.5,95.5 C 141.524,96.6794 141.191,98.0127 143.5,99.5C 148.171,98.2417 152.838,98.2417 157.5,99.5C 158.11,100.391 158.443,101.391 158.5,102.5C 157.577,101.697 156.577,101.53 155.5,102C 156.711,102.893 156.711,103.726 155.5,104.5C 154.749,103.624 154.249,102.624 154,101.5C 153.692,102.308 153.192,102.975 152.5,103.5C 150.162,101.989 149.496,102.323 150.5,104.5C 152.743,105.474 155.076,105.808 157.5,105.5C 158.88,106.706 160.047,106.373 161,104.5C 161.333,109.167 161.667,113.833 162,118.5C 163.777,111.695 163.943,104.862 162.5,98C 166.381,97.6496 170.048,98.1496 173.5,99.5C 173.196,100.15 172.863,100.817 172.5,101.5C 177.467,102.329 182.467,102.829 187.5,103C 189.289,104.787 189.789,104.287 189,101.5C 187.729,100.117 186.229,99.1175 184.5,98.5C 187.287,97.5233 190.287,97.19 193.5,97.5C 193.049,102.229 192.549,106.895 192,111.5C 193.076,108.763 194.243,106.096 195.5,103.5C 195.034,108.632 195.034,113.965 195.5,119.5C 194.724,123.72 192.89,127.386 190,130.5C 189.338,132.813 188.838,135.146 188.5,137.5C 185.465,139.879 183.131,142.879 181.5,146.5C 180.833,146.5 180.167,146.5 179.5,146.5C 177.973,146.427 176.973,147.094 176.5,148.5C 169.609,152.174 162.276,153.341 154.5,152C 148.439,149.099 142.772,145.599 137.5,141.5C 135.065,135.266 134.899,128.932 137,122.5C 139.782,118.26 141.115,113.593 141,108.5C 141.652,106.277 143.152,105.11 145.5,105C 143.391,103.859 141.558,102.359 140,100.5C 139.242,98.2305 139.409,96.0639 140.5,94C 142.352,93.2274 143.686,93.7274 144.5,95.5 Z"/></g>
<g><path style="opacity:1" fill="#4b433e" d="M 158.5,102.5 C 157.89,103.391 157.557,104.391 157.5,105.5C 155.076,105.808 152.743,105.474 150.5,104.5C 149.496,102.323 150.162,101.989 152.5,103.5C 153.192,102.975 153.692,102.308 154,101.5C 154.249,102.624 154.749,103.624 155.5,104.5C 156.711,103.726 156.711,102.893 155.5,102C 156.577,101.53 157.577,101.697 158.5,102.5 Z"/></g>
<g><path style="opacity:1" fill="#1c1613" d="M 184.5,98.5 C 186.229,99.1175 187.729,100.117 189,101.5C 189.789,104.287 189.289,104.787 187.5,103C 182.467,102.829 177.467,102.329 172.5,101.5C 172.863,100.817 173.196,100.15 173.5,99.5C 177.064,98.5773 180.731,98.244 184.5,98.5 Z"/></g>
<g><path style="opacity:1" fill="#302d2c" d="M 177.5,104.5 C 179.124,104.36 180.29,105.027 181,106.5C 182.281,105.353 182.614,105.687 182,107.5C 179.222,108.685 177.722,107.685 177.5,104.5 Z"/></g>
<g><path style="opacity:1" fill="#cba78d" d="M 127.5,96.5 C 128.167,96.5 128.5,96.8333 128.5,97.5C 127.39,100.168 127.39,103.001 128.5,106C 128.135,108.261 127.469,110.427 126.5,112.5C 127.325,113.386 128.325,113.719 129.5,113.5C 130.021,117.481 130.354,121.481 130.5,125.5C 129.811,126.774 128.977,126.774 128,125.5C 126.637,122.41 125.47,119.244 124.5,116C 127.4,110.547 127.734,105.047 125.5,99.5C 125.453,97.9623 126.12,96.9623 127.5,96.5 Z"/></g>
<g><path style="opacity:1" fill="#242525" d="M 172.5,132.5 C 169.193,132.937 166.193,132.27 163.5,130.5C 162.264,131.246 160.93,131.579 159.5,131.5C 154.4,130.381 149.4,129.715 144.5,129.5C 146.024,127.142 148.024,125.309 150.5,124C 154.401,124.354 158.234,124.187 162,123.5C 166.485,124.858 170.985,125.358 175.5,125C 178.505,127.346 180.505,130.346 181.5,134C 178.787,133.203 175.787,132.703 172.5,132.5 Z"/></g>
<g><path style="opacity:1" fill="#f1f0ef" d="M 172.5,132.5 C 172.423,133.75 171.756,134.583 170.5,135C 165.442,135.661 160.442,135.328 155.5,134C 154.833,133.333 154.167,132.667 153.5,132C 155.473,131.505 157.473,131.338 159.5,131.5C 160.93,131.579 162.264,131.246 163.5,130.5C 166.193,132.27 169.193,132.937 172.5,132.5 Z"/></g>
<g><path style="opacity:1" fill="#0c0e0f" d="M 131.5,131.5 C 133.439,133.937 133.773,136.603 132.5,139.5C 128.563,143.814 126.896,148.981 127.5,155C 127.962,163.551 129.962,171.718 133.5,179.5C 134.403,182.391 134.736,185.391 134.5,188.5C 135.833,188.5 137.167,188.5 138.5,188.5C 138.833,189.167 139.167,189.833 139.5,190.5C 142.395,196.288 144.728,202.288 146.5,208.5C 140.891,209.98 135.557,211.98 130.5,214.5C 127.327,215.17 124.327,216.336 121.5,218C 120.919,218.893 120.585,219.893 120.5,221C 122.084,226.995 124.084,232.829 126.5,238.5C 127.35,240.494 127.85,242.494 128,244.5C 124.955,240.244 121.788,236.077 118.5,232C 116.866,231.506 115.199,231.34 113.5,231.5C 110.502,228.333 107.669,225 105,221.5C 103.78,214.233 104.947,207.4 108.5,201C 101.028,203.983 96.028,209.483 93.5,217.5C 92.6406,218.774 91.9739,218.608 91.5,217C 87.2238,200.975 86.3905,184.809 89,168.5C 85.3937,176.152 82.8937,184.152 81.5,192.5C 80.4756,191.148 79.4756,189.815 78.5,188.5C 76.6117,185.101 74.1117,182.101 71,179.5C 71.8507,165.481 79.3507,157.814 93.5,156.5C 92.945,163.704 93.7783,170.704 96,177.5C 95.5162,171.205 95.5162,164.871 96,158.5C 96.3603,156.579 97.1936,154.912 98.5,153.5C 87.5132,153.014 78.0132,156.681 70,164.5C 66.2882,170.101 64.7882,176.101 65.5,182.5C 65.0618,182.435 64.7284,182.601 64.5,183C 72.2134,186.372 77.3801,191.872 80,199.5C 76.1322,195.815 71.6322,193.648 66.5,193C 71.5877,196.083 76.0877,199.917 80,204.5C 80.6667,214.833 80.6667,225.167 80,235.5C 78.2765,233.283 76.7765,230.95 75.5,228.5C 72.1841,223.019 67.6841,218.686 62,215.5C 61.3333,214.167 60.6667,212.833 60,211.5C 59.6156,205.806 59.6156,200.14 60,194.5C 55.6667,209.167 51.3333,223.833 47,238.5C 44.5909,242.734 42.4242,247.067 40.5,251.5C 41.4569,254.28 42.6236,256.947 44,259.5C 46.1667,256 49,253.167 52.5,251C 57.4374,249.631 61.604,250.797 65,254.5C 65.3374,245.164 61.004,241.164 52,242.5C 51.2501,235.415 51.7501,228.415 53.5,221.5C 53.7472,220.287 54.4138,219.62 55.5,219.5C 71.3649,227.395 77.0316,239.895 72.5,257C 70.6547,258.128 68.6547,258.628 66.5,258.5C 66.1667,258.5 65.8333,258.5 65.5,258.5C 63.9894,256.559 61.9894,256.059 59.5,257C 51.5371,263.174 49.3705,271.007 53,280.5C 54.3333,283.167 55.6667,285.833 57,288.5C 58.5833,289.971 60.4166,290.971 62.5,291.5C 63.8333,292.5 65.1667,293.5 66.5,294.5C 65.209,294.263 64.209,294.596 63.5,295.5C 48.1215,293.629 37.9548,285.296 33,270.5C 32.1955,264.431 32.5288,258.431 34,252.5C 37.0605,245.379 40.3938,238.379 44,231.5C 46.526,222.711 49.026,214.044 51.5,205.5C 52.9238,203.485 53.5905,201.152 53.5,198.5C 54.9238,196.485 55.5905,194.152 55.5,191.5C 57.9022,180.793 61.4022,170.46 66,160.5C 70.9539,155.603 76.7872,152.103 83.5,150C 93.9635,148.201 104.297,145.868 114.5,143C 120.886,140.094 126.553,136.26 131.5,131.5 Z"/></g>
<g><path style="opacity:1" fill="#0e0f0f" d="M 188.5,137.5 C 193.31,141.411 198.643,144.577 204.5,147C 215.856,151.004 227.19,155.004 238.5,159C 240.709,160.873 242.542,163.04 244,165.5C 252.672,189.181 260.338,213.181 267,237.5C 269.139,243.112 271.806,248.446 275,253.5C 279.517,264.102 278.85,274.435 273,284.5C 268.553,290.647 262.719,293.314 255.5,292.5C 254.89,291.609 254.557,290.609 254.5,289.5C 256.062,289.267 257.395,288.6 258.5,287.5C 264.754,285.747 268.921,281.747 271,275.5C 273,269.833 273,264.167 271,258.5C 263.098,245.128 257.765,230.795 255,215.5C 249.728,199.017 244.061,182.683 238,166.5C 236.269,164.383 234.102,162.883 231.5,162C 226.248,160.187 220.915,158.687 215.5,157.5C 217.274,167.194 216.107,176.527 212,185.5C 212.255,180.867 212.755,176.201 213.5,171.5C 214.612,159.804 209.612,152.971 198.5,151C 199.399,152.652 200.399,154.152 201.5,155.5C 202.759,159.048 203.593,162.715 204,166.5C 204.667,176.833 204.667,187.167 204,197.5C 200.593,192.071 196.093,188.237 190.5,186C 196.487,190.808 199.653,196.975 200,204.5C 199.502,206.544 198.335,207.878 196.5,208.5C 189.212,207.007 181.879,206.174 174.5,206C 174,206.5 173.5,207 173,207.5C 171.757,216.429 169.924,225.095 167.5,233.5C 166.168,227.506 164.835,221.506 163.5,215.5C 167.83,207.508 172.163,199.508 176.5,191.5C 176.5,191.167 176.5,190.833 176.5,190.5C 177.779,189.032 179.446,188.365 181.5,188.5C 181.725,184.944 180.892,184.61 179,187.5C 171.912,187.123 166.245,184.123 162,178.5C 159.733,179.935 157.733,179.602 156,177.5C 152.87,179.628 150.037,182.128 147.5,185C 143.358,185.327 139.358,186.161 135.5,187.5C 135.5,184.833 135.5,182.167 135.5,179.5C 135.464,172.359 137.131,165.693 140.5,159.5C 144.96,164.063 150.293,167.063 156.5,168.5C 158.167,168.5 159.833,168.5 161.5,168.5C 162.265,168.923 163.098,169.257 164,169.5C 168.887,167.641 173.387,165.141 177.5,162C 178.833,161.333 180.167,161.333 181.5,162C 182.246,167.769 182.413,173.602 182,179.5C 185.461,168.408 185.294,157.408 181.5,146.5C 183.131,142.879 185.465,139.879 188.5,137.5 Z"/></g>
<g><path style="opacity:1" fill="#f5f5f5" d="M 132.5,139.5 C 133.282,142.714 134.115,146.048 135,149.5C 139.082,158.725 146.249,163.392 156.5,163.5C 156.5,165.167 156.5,166.833 156.5,168.5C 150.293,167.063 144.96,164.063 140.5,159.5C 137.131,165.693 135.464,172.359 135.5,179.5C 134.833,179.5 134.167,179.5 133.5,179.5C 129.962,171.718 127.962,163.551 127.5,155C 126.896,148.981 128.563,143.814 132.5,139.5 Z"/></g>
<g><path style="opacity:1" fill="#99654c" d="M 137.5,141.5 C 142.772,145.599 148.439,149.099 154.5,152C 162.276,153.341 169.609,152.174 176.5,148.5C 175.375,150.129 174.041,151.629 172.5,153C 165.533,156.334 158.2,157.334 150.5,156C 142.314,154.277 137.314,149.443 135.5,141.5C 135.97,140.537 136.637,140.537 137.5,141.5 Z"/></g>
<g><path style="opacity:1" fill="#efefef" d="M 179.5,146.5 C 180.167,146.5 180.833,146.5 181.5,146.5C 185.294,157.408 185.461,168.408 182,179.5C 182.413,173.602 182.246,167.769 181.5,162C 180.167,161.333 178.833,161.333 177.5,162C 173.387,165.141 168.887,167.641 164,169.5C 163.098,169.257 162.265,168.923 161.5,168.5C 160.791,167.596 159.791,167.263 158.5,167.5C 158.5,166.167 158.5,164.833 158.5,163.5C 169.366,162.636 176.366,156.969 179.5,146.5 Z"/></g>
<g><path style="opacity:1" fill="#0a0d0e" d="M 258.5,287.5 C 264.654,278.09 263.654,269.59 255.5,262C 248.474,259.4 243.474,261.566 240.5,268.5C 237.545,269.159 234.545,269.492 231.5,269.5C 235.028,261.442 238.861,253.442 243,245.5C 244.45,241.276 242.95,238.776 238.5,238C 230.957,235.724 223.29,233.891 215.5,232.5C 214.228,232.57 213.062,232.903 212,233.5C 210,237.5 208,241.5 206,245.5C 207.447,235.658 209.28,225.825 211.5,216C 211.441,214.564 211.108,213.231 210.5,212C 207.582,210.85 204.582,210.017 201.5,209.5C 200.833,209.5 200.167,209.5 199.5,209.5C 201.092,205.752 201.925,201.752 202,197.5C 203,198.833 204,200.167 205,201.5C 205.333,201.167 205.667,200.833 206,200.5C 206.805,187.136 206.472,173.802 205,160.5C 204.136,157.891 202.97,156.225 201.5,155.5C 200.399,154.152 199.399,152.652 198.5,151C 209.612,152.971 214.612,159.804 213.5,171.5C 212.755,176.201 212.255,180.867 212,185.5C 216.107,176.527 217.274,167.194 215.5,157.5C 220.915,158.687 226.248,160.187 231.5,162C 234.102,162.883 236.269,164.383 238,166.5C 244.061,182.683 249.728,199.017 255,215.5C 257.765,230.795 263.098,245.128 271,258.5C 273,264.167 273,269.833 271,275.5C 268.921,281.747 264.754,285.747 258.5,287.5 Z"/></g>
<g><path style="opacity:1" fill="#1d2021" d="M 78.5,188.5 C 74.5504,185.692 70.217,183.692 65.5,182.5C 64.7882,176.101 66.2882,170.101 70,164.5C 78.0132,156.681 87.5132,153.014 98.5,153.5C 97.1936,154.912 96.3603,156.579 96,158.5C 95.5162,164.871 95.5162,171.205 96,177.5C 93.7783,170.704 92.945,163.704 93.5,156.5C 79.3507,157.814 71.8507,165.481 71,179.5C 74.1117,182.101 76.6117,185.101 78.5,188.5 Z"/></g>
<g><path style="opacity:1" fill="#010102" d="M 113.5,231.5 C 106.167,239.167 98.8333,246.833 91.5,254.5C 89.4286,255.572 88.0953,257.239 87.5,259.5C 88.5354,262.91 90.5354,265.577 93.5,267.5C 85.5633,268.176 77.5633,267.509 69.5,265.5C 68.242,263.313 67.242,260.98 66.5,258.5C 68.6547,258.628 70.6547,258.128 72.5,257C 77.0316,239.895 71.3649,227.395 55.5,219.5C 63.4207,219.807 70.0873,222.807 75.5,228.5C 76.7765,230.95 78.2765,233.283 80,235.5C 80.6667,225.167 80.6667,214.833 80,204.5C 76.0877,199.917 71.5877,196.083 66.5,193C 71.6322,193.648 76.1322,195.815 80,199.5C 77.3801,191.872 72.2134,186.372 64.5,183C 64.7284,182.601 65.0618,182.435 65.5,182.5C 70.217,183.692 74.5504,185.692 78.5,188.5C 79.4756,189.815 80.4756,191.148 81.5,192.5C 82.8937,184.152 85.3937,176.152 89,168.5C 86.3905,184.809 87.2238,200.975 91.5,217C 91.9739,218.608 92.6406,218.774 93.5,217.5C 96.028,209.483 101.028,203.983 108.5,201C 104.947,207.4 103.78,214.233 105,221.5C 107.669,225 110.502,228.333 113.5,231.5 Z"/></g>
<g><path style="opacity:1" fill="#f8f9f9" d="M 176.5,190.5 C 176.5,190.833 176.5,191.167 176.5,191.5C 172.096,196.63 168.429,202.296 165.5,208.5C 163.862,204.03 163.029,199.363 163,194.5C 162.501,200.157 162.334,205.824 162.5,211.5C 161.136,209.78 160.136,207.78 159.5,205.5C 158.675,204.614 157.675,204.281 156.5,204.5C 156.757,201.068 157.424,197.734 158.5,194.5C 156.654,194.222 155.32,194.889 154.5,196.5C 156.723,201.946 155.057,205.28 149.5,206.5C 147.351,200.366 144.017,195.033 139.5,190.5C 139.167,189.833 138.833,189.167 138.5,188.5C 141.14,187.555 143.806,187.388 146.5,188C 150.289,185.873 153.789,183.373 157,180.5C 160.051,181.546 162.551,183.379 164.5,186C 168.735,187.211 172.735,188.711 176.5,190.5 Z"/></g>
<g><path style="opacity:1" fill="#8a8c8d" d="M 176.5,190.5 C 172.735,188.711 168.735,187.211 164.5,186C 162.551,183.379 160.051,181.546 157,180.5C 153.789,183.373 150.289,185.873 146.5,188C 143.806,187.388 141.14,187.555 138.5,188.5C 137.167,188.5 135.833,188.5 134.5,188.5C 134.736,185.391 134.403,182.391 133.5,179.5C 134.167,179.5 134.833,179.5 135.5,179.5C 135.5,182.167 135.5,184.833 135.5,187.5C 139.358,186.161 143.358,185.327 147.5,185C 150.037,182.128 152.87,179.628 156,177.5C 157.733,179.602 159.733,179.935 162,178.5C 166.245,184.123 171.912,187.123 179,187.5C 180.892,184.61 181.725,184.944 181.5,188.5C 179.446,188.365 177.779,189.032 176.5,190.5 Z"/></g>
<g><path style="opacity:1" fill="#1f2223" d="M 199.5,209.5 C 198.209,209.737 197.209,209.404 196.5,208.5C 198.335,207.878 199.502,206.544 200,204.5C 199.653,196.975 196.487,190.808 190.5,186C 196.093,188.237 200.593,192.071 204,197.5C 204.667,187.167 204.667,176.833 204,166.5C 203.593,162.715 202.759,159.048 201.5,155.5C 202.97,156.225 204.136,157.891 205,160.5C 206.472,173.802 206.805,187.136 206,200.5C 205.667,200.833 205.333,201.167 205,201.5C 204,200.167 203,198.833 202,197.5C 201.925,201.752 201.092,205.752 199.5,209.5 Z"/></g>
<g><path style="opacity:0.937" fill="#616161" d="M 55.5,191.5 C 55.5905,194.152 54.9238,196.485 53.5,198.5C 53.4095,195.848 54.0762,193.515 55.5,191.5 Z"/></g>
<g><path style="opacity:1" fill="#949797" d="M 139.5,190.5 C 144.017,195.033 147.351,200.366 149.5,206.5C 148.71,207.401 147.71,208.068 146.5,208.5C 144.728,202.288 142.395,196.288 139.5,190.5 Z"/></g>
<g><path style="opacity:0.953" fill="#5e5e5e" d="M 53.5,198.5 C 53.5905,201.152 52.9238,203.485 51.5,205.5C 51.4095,202.848 52.0762,200.515 53.5,198.5 Z"/></g>
<g><path style="opacity:1" fill="#adadad" d="M 176.5,191.5 C 172.163,199.508 167.83,207.508 163.5,215.5C 162.566,214.432 162.232,213.099 162.5,211.5C 162.334,205.824 162.501,200.157 163,194.5C 163.029,199.363 163.862,204.03 165.5,208.5C 168.429,202.296 172.096,196.63 176.5,191.5 Z"/></g>
<g><path style="opacity:1" fill="#d8d9d8" d="M 162.5,211.5 C 162.232,213.099 162.566,214.432 163.5,215.5C 164.835,221.506 166.168,227.506 167.5,233.5C 165.989,232.498 164.322,231.831 162.5,231.5C 161.772,229.488 160.938,227.488 160,225.5C 158.644,224.62 157.144,224.286 155.5,224.5C 156.185,229.239 157.185,233.905 158.5,238.5C 157.167,238.5 156.5,239.167 156.5,240.5C 155.002,235.991 153.669,231.325 152.5,226.5C 155.04,224.334 154.373,223.334 150.5,223.5C 150.5,222.5 150.5,221.5 150.5,220.5C 143.961,218.098 137.294,216.098 130.5,214.5C 135.557,211.98 140.891,209.98 146.5,208.5C 147.71,208.068 148.71,207.401 149.5,206.5C 155.057,205.28 156.723,201.946 154.5,196.5C 155.32,194.889 156.654,194.222 158.5,194.5C 157.424,197.734 156.757,201.068 156.5,204.5C 157.675,204.281 158.675,204.614 159.5,205.5C 160.136,207.78 161.136,209.78 162.5,211.5 Z"/></g>
<g><path style="opacity:1" fill="#656665" d="M 156.5,206.5 C 157.267,207.172 157.934,208.005 158.5,209C 157.962,210.899 157.295,213.066 156.5,215.5C 160.5,215.833 160.5,216.167 156.5,216.5C 156.719,217.675 156.386,218.675 155.5,219.5C 153.382,218.054 151.049,217.387 148.5,217.5C 148.5,216.5 148.5,215.5 148.5,214.5C 149.5,214.5 150.5,214.5 151.5,214.5C 151.351,213.448 151.517,212.448 152,211.5C 153.707,209.963 155.207,208.296 156.5,206.5 Z"/></g>
<g><path style="opacity:1" fill="#e07a7c" d="M 200.5,221.5 C 200.703,219.61 200.037,218.11 198.5,217C 200.618,215.918 202.618,214.751 204.5,213.5C 206.144,213.714 207.644,213.38 209,212.5C 209.667,213.5 209.667,214.5 209,215.5C 206.98,217.127 205.147,218.961 203.5,221C 202.552,221.483 201.552,221.649 200.5,221.5 Z"/></g>
<g><path style="opacity:1" fill="#1e2122" d="M 75.5,228.5 C 70.0873,222.807 63.4207,219.807 55.5,219.5C 54.4138,219.62 53.7472,220.287 53.5,221.5C 51.7501,228.415 51.2501,235.415 52,242.5C 61.004,241.164 65.3374,245.164 65,254.5C 61.604,250.797 57.4374,249.631 52.5,251C 49,253.167 46.1667,256 44,259.5C 42.6236,256.947 41.4569,254.28 40.5,251.5C 42.4242,247.067 44.5909,242.734 47,238.5C 51.3333,223.833 55.6667,209.167 60,194.5C 59.6156,200.14 59.6156,205.806 60,211.5C 60.6667,212.833 61.3333,214.167 62,215.5C 67.6841,218.686 72.1841,223.019 75.5,228.5 Z"/></g>
<g><path style="opacity:1" fill="#eeeeee" d="M 130.5,214.5 C 137.294,216.098 143.961,218.098 150.5,220.5C 150.5,221.5 150.5,222.5 150.5,223.5C 154.373,223.334 155.04,224.334 152.5,226.5C 151.624,226.369 150.957,226.702 150.5,227.5C 151.752,229.735 152.252,232.069 152,234.5C 150.829,232.158 149.662,229.824 148.5,227.5C 148.167,228 147.833,228.5 147.5,229C 148.406,231.791 149.073,234.624 149.5,237.5C 149.5,238.167 149.167,238.5 148.5,238.5C 147.508,235.862 146.508,233.195 145.5,230.5C 144.635,229.417 143.635,229.251 142.5,230C 144.149,236.076 145.482,242.243 146.5,248.5C 145.325,248.719 144.325,248.386 143.5,247.5C 141.802,242.031 139.802,236.698 137.5,231.5C 136.702,231.957 136.369,232.624 136.5,233.5C 136.5,234.167 136.167,234.5 135.5,234.5C 134.249,232.439 132.582,232.106 130.5,233.5C 131.246,234.736 131.579,236.07 131.5,237.5C 131.719,238.675 131.386,239.675 130.5,240.5C 129.476,239.147 128.143,238.48 126.5,238.5C 124.084,232.829 122.084,226.995 120.5,221C 120.585,219.893 120.919,218.893 121.5,218C 124.327,216.336 127.327,215.17 130.5,214.5 Z"/></g>
<g><path style="opacity:1" fill="#181818" d="M 162.5,231.5 C 164.304,236.707 165.137,242.04 165,247.5C 164,248.167 163,248.833 162,249.5C 160.677,245.873 159.511,242.207 158.5,238.5C 157.185,233.905 156.185,229.239 155.5,224.5C 157.144,224.286 158.644,224.62 160,225.5C 160.938,227.488 161.772,229.488 162.5,231.5 Z"/></g>
<g><path style="opacity:1" fill="#e8262a" d="M 198.5,227.5 C 197.167,234.167 195.833,240.833 194.5,247.5C 192.763,244.992 191.93,241.992 192,238.5C 191.5,240.5 191,242.5 190.5,244.5C 190.253,245.713 189.586,246.38 188.5,246.5C 189.263,243.859 189.43,241.192 189,238.5C 188.621,241.03 187.787,243.363 186.5,245.5C 185.167,245.5 183.833,245.5 182.5,245.5C 182.5,243.833 182.5,242.167 182.5,240.5C 186.845,240.702 187.512,239.369 184.5,236.5C 184.5,234.833 184.5,233.167 184.5,231.5C 184.289,227.016 186.289,225.183 190.5,226C 191.711,227.113 191.711,228.28 190.5,229.5C 189.167,230.167 187.833,230.833 186.5,231.5C 187.861,233.028 189.028,234.695 190,236.5C 190.673,232.98 191.84,229.647 193.5,226.5C 194.318,229.107 194.818,231.774 195,234.5C 195.422,232.645 195.922,230.811 196.5,229C 196.836,227.97 197.503,227.47 198.5,227.5 Z"/></g>
<g><path style="opacity:1" fill="#e72529" d="M 199.5,228.5 C 201.199,228.34 202.866,228.506 204.5,229C 205.471,233.31 204.805,237.476 202.5,241.5C 201.051,242.172 199.718,242.839 198.5,243.5C 198.201,245.455 197.201,246.789 195.5,247.5C 196.992,241.2 198.325,234.866 199.5,228.5 Z"/></g>
<g><path style="opacity:1" fill="#ef8d90" d="M 198.5,227.5 C 198.833,227.5 199.167,227.5 199.5,227.5C 199.5,227.833 199.5,228.167 199.5,228.5C 198.325,234.866 196.992,241.2 195.5,247.5C 195.167,247.5 194.833,247.5 194.5,247.5C 195.833,240.833 197.167,234.167 198.5,227.5 Z"/></g>
<g><path style="opacity:1" fill="#141414" d="M 135.5,234.5 C 137.762,238.877 139.095,243.544 139.5,248.5C 138.859,251.185 138.526,253.852 138.5,256.5C 136,250.124 133.667,243.79 131.5,237.5C 131.579,236.07 131.246,234.736 130.5,233.5C 132.582,232.106 134.249,232.439 135.5,234.5 Z"/></g>
<g><path style="opacity:0.995" fill="#d3d4d3" d="M 201.5,209.5 C 204.582,210.017 207.582,210.85 210.5,212C 211.108,213.231 211.441,214.564 211.5,216C 209.28,225.825 207.447,235.658 206,245.5C 208,241.5 210,237.5 212,233.5C 213.062,232.903 214.228,232.57 215.5,232.5C 223.29,233.891 230.957,235.724 238.5,238C 242.95,238.776 244.45,241.276 243,245.5C 238.861,253.442 235.028,261.442 231.5,269.5C 234.545,269.492 237.545,269.159 240.5,268.5C 242.258,268.123 243.925,267.456 245.5,266.5C 246.641,269.062 247.474,271.728 248,274.5C 248.392,265.302 249.392,265.302 251,274.5C 251.333,272.5 251.667,270.5 252,268.5C 255.497,275.136 256.33,282.136 254.5,289.5C 251.436,289.144 248.769,289.977 246.5,292C 241.5,297 236.5,302 231.5,307C 228.5,307.333 225.5,307.667 222.5,308C 220.112,309.861 217.446,311.194 214.5,312C 209.619,312.271 204.953,312.438 200.5,312.5C 199.508,312.672 198.842,312.338 198.5,311.5C 198.938,311.565 199.272,311.399 199.5,311C 197.187,310.359 195.52,309.026 194.5,307C 194.613,305.72 195.28,304.887 196.5,304.5C 202.714,306.35 209.047,306.85 215.5,306C 217.861,305.803 219.528,304.636 220.5,302.5C 220,302.167 219.5,301.833 219,301.5C 213.125,304.013 207.292,304.013 201.5,301.5C 198.946,300.394 196.279,299.561 193.5,299C 192.594,297.301 192.261,295.467 192.5,293.5C 193.512,291.124 195.345,290.124 198,290.5C 203.301,291.323 208.468,292.656 213.5,294.5C 218.909,292.136 223.576,288.802 227.5,284.5C 226.833,283.167 225.833,282.167 224.5,281.5C 221.189,289.624 215.189,292.791 206.5,291C 201.752,288.244 197.086,288.077 192.5,290.5C 190.31,288.558 188.31,286.391 186.5,284C 187.093,281.317 188.093,278.817 189.5,276.5C 192.303,276.408 195.303,276.242 198.5,276C 201.073,267.303 203.073,258.47 204.5,249.5C 204.468,245.468 202.468,243.468 198.5,243.5C 199.718,242.839 201.051,242.172 202.5,241.5C 204.805,237.476 205.471,233.31 204.5,229C 202.866,228.506 201.199,228.34 199.5,228.5C 199.5,228.167 199.5,227.833 199.5,227.5C 200.5,227.5 201.5,227.5 202.5,227.5C 202.386,225.282 201.72,223.282 200.5,221.5C 201.552,221.649 202.552,221.483 203.5,221C 205.147,218.961 206.98,217.127 209,215.5C 209.667,214.5 209.667,213.5 209,212.5C 207.644,213.38 206.144,213.714 204.5,213.5C 203.789,211.97 202.789,210.637 201.5,209.5 Z"/></g>
<g><path style="opacity:1" fill="#939393" d="M 136.5,233.5 C 138.613,238.255 140.279,243.255 141.5,248.5C 140.833,248.5 140.167,248.5 139.5,248.5C 139.095,243.544 137.762,238.877 135.5,234.5C 136.167,234.5 136.5,234.167 136.5,233.5 Z"/></g>
<g><path style="opacity:1" fill="#eebfc0" d="M 200.5,233.5 C 201.376,233.369 202.043,233.702 202.5,234.5C 199.954,239.633 199.287,239.3 200.5,233.5 Z"/></g>
<g><path style="opacity:1" fill="#cecece" d="M 158.5,230.5 C 159.79,231.058 160.623,232.058 161,233.5C 162.124,236.442 162.458,239.442 162,242.5C 160.521,238.583 159.354,234.583 158.5,230.5 Z"/></g>
<g><path style="opacity:1" fill="#c5c5c6" d="M 134.5,238.5 C 136.377,239.659 136.877,241.326 136,243.5C 134.991,241.975 134.491,240.308 134.5,238.5 Z"/></g>
<g><path style="opacity:1" fill="#151516" d="M 152.5,226.5 C 153.669,231.325 155.002,235.991 156.5,240.5C 157.162,243.148 157.829,245.815 158.5,248.5C 157.758,251.083 157.092,251.083 156.5,248.5C 155.406,246.641 154.573,244.641 154,242.5C 153.412,245.139 153.912,247.473 155.5,249.5C 153.732,253.29 151.899,253.29 150,249.5C 149.79,251.058 149.29,252.391 148.5,253.5C 144.085,255.109 141.751,253.443 141.5,248.5C 140.279,243.255 138.613,238.255 136.5,233.5C 136.369,232.624 136.702,231.957 137.5,231.5C 139.802,236.698 141.802,242.031 143.5,247.5C 144.325,248.386 145.325,248.719 146.5,248.5C 145.482,242.243 144.149,236.076 142.5,230C 143.635,229.251 144.635,229.417 145.5,230.5C 146.508,233.195 147.508,235.862 148.5,238.5C 149.895,242.515 151.395,246.515 153,250.5C 152.534,245.942 151.368,241.609 149.5,237.5C 149.073,234.624 148.406,231.791 147.5,229C 147.833,228.5 148.167,228 148.5,227.5C 149.662,229.824 150.829,232.158 152,234.5C 152.252,232.069 151.752,229.735 150.5,227.5C 150.957,226.702 151.624,226.369 152.5,226.5 Z"/></g>
<g><path style="opacity:1" fill="#a3a3a3" d="M 149.5,237.5 C 151.368,241.609 152.534,245.942 153,250.5C 151.395,246.515 149.895,242.515 148.5,238.5C 149.167,238.5 149.5,238.167 149.5,237.5 Z"/></g>
<g><path style="opacity:1" fill="#777777" d="M 238.5,240.5 C 239.5,240.5 240.5,240.5 241.5,240.5C 241.649,241.552 241.483,242.552 241,243.5C 237.965,246.596 234.631,248.596 231,249.5C 232.114,247.331 231.614,245.498 229.5,244C 232.473,243.305 235.473,242.138 238.5,240.5 Z"/></g>
<g><path style="opacity:1" fill="#929292" d="M 156.5,248.5 C 155.833,248.5 155.5,248.833 155.5,249.5C 153.912,247.473 153.412,245.139 154,242.5C 154.573,244.641 155.406,246.641 156.5,248.5 Z"/></g>
<g><path style="opacity:1" fill="#ededed" d="M 196.5,208.5 C 197.209,209.404 198.209,209.737 199.5,209.5C 200.167,209.5 200.833,209.5 201.5,209.5C 202.789,210.637 203.789,211.97 204.5,213.5C 202.618,214.751 200.618,215.918 198.5,217C 200.037,218.11 200.703,219.61 200.5,221.5C 201.72,223.282 202.386,225.282 202.5,227.5C 201.5,227.5 200.5,227.5 199.5,227.5C 199.167,227.5 198.833,227.5 198.5,227.5C 197.503,227.47 196.836,227.97 196.5,229C 195.922,230.811 195.422,232.645 195,234.5C 194.818,231.774 194.318,229.107 193.5,226.5C 191.84,229.647 190.673,232.98 190,236.5C 189.028,234.695 187.861,233.028 186.5,231.5C 187.833,230.833 189.167,230.167 190.5,229.5C 191.711,228.28 191.711,227.113 190.5,226C 186.289,225.183 184.289,227.016 184.5,231.5C 183.833,231.833 183.167,232.167 182.5,232.5C 180.78,230.342 179.947,227.675 180,224.5C 178.301,223.594 176.467,223.261 174.5,223.5C 172.945,229.766 172.112,236.099 172,242.5C 176.481,244.207 178.647,242.541 178.5,237.5C 180.099,237.768 181.432,237.434 182.5,236.5C 183.167,236.5 183.833,236.5 184.5,236.5C 187.512,239.369 186.845,240.702 182.5,240.5C 182.5,242.167 182.5,243.833 182.5,245.5C 183.833,245.5 185.167,245.5 186.5,245.5C 187.167,245.833 187.833,246.167 188.5,246.5C 189.586,246.38 190.253,245.713 190.5,244.5C 191,242.5 191.5,240.5 192,238.5C 191.93,241.992 192.763,244.992 194.5,247.5C 194.833,247.5 195.167,247.5 195.5,247.5C 197.201,246.789 198.201,245.455 198.5,243.5C 202.468,243.468 204.468,245.468 204.5,249.5C 203.073,258.47 201.073,267.303 198.5,276C 195.303,276.242 192.303,276.408 189.5,276.5C 186.913,275.251 184.246,274.251 181.5,273.5C 182.833,273.5 184.167,273.5 185.5,273.5C 185.799,271.396 185.466,269.396 184.5,267.5C 182.908,265.316 181.574,262.982 180.5,260.5C 178.993,258.31 176.993,256.976 174.5,256.5C 176.594,262.666 176.927,265.999 175.5,266.5C 169.35,263.98 163.016,261.98 156.5,260.5C 156.5,259.5 156.5,258.5 156.5,257.5C 153.194,257.181 150.527,255.847 148.5,253.5C 149.29,252.391 149.79,251.058 150,249.5C 151.899,253.29 153.732,253.29 155.5,249.5C 155.5,248.833 155.833,248.5 156.5,248.5C 157.092,251.083 157.758,251.083 158.5,248.5C 157.829,245.815 157.162,243.148 156.5,240.5C 156.5,239.167 157.167,238.5 158.5,238.5C 159.511,242.207 160.677,245.873 162,249.5C 163,248.833 164,248.167 165,247.5C 165.137,242.04 164.304,236.707 162.5,231.5C 164.322,231.831 165.989,232.498 167.5,233.5C 169.924,225.095 171.757,216.429 173,207.5C 173.5,207 174,206.5 174.5,206C 181.879,206.174 189.212,207.007 196.5,208.5 Z"/></g>
<g><path style="opacity:1" fill="#f5999b" d="M 188.5,246.5 C 187.833,246.167 187.167,245.833 186.5,245.5C 187.787,243.363 188.621,241.03 189,238.5C 189.43,241.192 189.263,243.859 188.5,246.5 Z"/></g>
<g><path style="opacity:1" fill="#f38c90" d="M 184.5,231.5 C 184.5,233.167 184.5,234.833 184.5,236.5C 183.833,236.5 183.167,236.5 182.5,236.5C 183.405,235.036 183.405,233.702 182.5,232.5C 183.167,232.167 183.833,231.833 184.5,231.5 Z"/></g>
<g><path style="opacity:1" fill="#e93534" d="M 182.5,232.5 C 183.405,233.702 183.405,235.036 182.5,236.5C 181.432,237.434 180.099,237.768 178.5,237.5C 178.647,242.541 176.481,244.207 172,242.5C 172.112,236.099 172.945,229.766 174.5,223.5C 176.467,223.261 178.301,223.594 180,224.5C 179.947,227.675 180.78,230.342 182.5,232.5 Z"/></g>
<g><path style="opacity:1" fill="#f6e1e2" d="M 176.5,228.5 C 177.883,231.862 177.55,235.195 175.5,238.5C 175.167,238 174.833,237.5 174.5,237C 175.233,234.165 175.9,231.332 176.5,228.5 Z"/></g>
<g><path style="opacity:1" fill="#111111" d="M 209.5,248.5 C 211.252,248.418 212.252,249.251 212.5,251C 211.469,254.143 210.969,257.309 211,260.5C 213.167,257.667 215.333,254.833 217.5,252C 218.635,251.251 219.635,251.417 220.5,252.5C 218.027,258.779 215.027,264.779 211.5,270.5C 210.692,270.192 210.025,269.692 209.5,269C 210.451,268.282 210.617,267.449 210,266.5C 207.563,269.149 206.23,268.483 206,264.5C 204.891,268.017 203.724,268.184 202.5,265C 205.132,259.598 207.465,254.098 209.5,248.5 Z"/></g>
<g><path style="opacity:1" fill="#101111" d="M 224.5,253.5 C 225.922,253.709 227.255,254.209 228.5,255C 226.468,261.596 224.134,268.096 221.5,274.5C 220.5,274.167 219.833,273.5 219.5,272.5C 220.641,271.575 220.641,270.741 219.5,270C 217.893,269.885 216.393,270.385 215,271.5C 214.5,271.167 214,270.833 213.5,270.5C 217.437,264.947 221.104,259.28 224.5,253.5 Z"/></g>
<g><path style="opacity:1" fill="#b5b7b7" d="M 65.5,258.5 C 65.8333,258.5 66.1667,258.5 66.5,258.5C 67.242,260.98 68.242,263.313 69.5,265.5C 67.0901,265.921 65.2568,267.254 64,269.5C 62.981,273.397 61.481,277.064 59.5,280.5C 56.7615,281.035 54.9282,280.035 54,277.5C 52.2981,270.755 53.7981,264.922 58.5,260C 60.6775,258.798 63.0108,258.298 65.5,258.5 Z"/></g>
<g><path style="opacity:1" fill="#818484" d="M 65.5,258.5 C 63.0108,258.298 60.6775,258.798 58.5,260C 53.7981,264.922 52.2981,270.755 54,277.5C 54.9282,280.035 56.7615,281.035 59.5,280.5C 59.6243,284.412 60.6243,288.079 62.5,291.5C 60.4166,290.971 58.5833,289.971 57,288.5C 55.6667,285.833 54.3333,283.167 53,280.5C 49.3705,271.007 51.5371,263.174 59.5,257C 61.9894,256.059 63.9894,256.559 65.5,258.5 Z"/></g>
<g><path style="opacity:1" fill="#abadad" d="M 258.5,287.5 C 257.395,288.6 256.062,289.267 254.5,289.5C 256.33,282.136 255.497,275.136 252,268.5C 251.667,270.5 251.333,272.5 251,274.5C 249.392,265.302 248.392,265.302 248,274.5C 247.474,271.728 246.641,269.062 245.5,266.5C 243.925,267.456 242.258,268.123 240.5,268.5C 243.474,261.566 248.474,259.4 255.5,262C 263.654,269.59 264.654,278.09 258.5,287.5 Z"/></g>
<g><path style="opacity:0.975" fill="#f6f3f3" d="M 91.5,254.5 C 106.182,254.167 120.848,254.501 135.5,255.5C 140.333,262.5 145.167,269.5 150,276.5C 150.816,277.823 151.983,278.489 153.5,278.5C 153.389,279.117 153.056,279.617 152.5,280C 156.58,283.112 158.247,286.945 157.5,291.5C 146.341,290.669 135.007,290.169 123.5,290C 124.056,289.617 124.389,289.117 124.5,288.5C 127.195,287.116 128.195,285.116 127.5,282.5C 129.652,284.812 131.652,284.478 133.5,281.5C 130.993,279.192 130.326,276.525 131.5,273.5C 130.813,271.823 130.146,270.156 129.5,268.5C 132.493,271.501 135.159,274.835 137.5,278.5C 140.257,276.912 141.09,274.579 140,271.5C 136.703,266.372 132.87,261.706 128.5,257.5C 127.167,258.5 125.833,259.5 124.5,260.5C 125.952,261.94 126.952,263.606 127.5,265.5C 126.143,264.315 124.643,263.315 123,262.5C 122.098,262.743 121.265,263.077 120.5,263.5C 116.935,262.213 113.268,262.213 109.5,263.5C 109.715,261.821 109.048,260.821 107.5,260.5C 106.749,259.427 105.749,259.26 104.5,260C 101.931,262.479 99.5977,265.146 97.5,268C 96.1807,268.195 94.8474,268.028 93.5,267.5C 90.5354,265.577 88.5354,262.91 87.5,259.5C 88.0953,257.239 89.4286,255.572 91.5,254.5 Z"/></g>
<g><path style="opacity:1" fill="#6f6f6f" d="M 107.5,260.5 C 109.048,260.821 109.715,261.821 109.5,263.5C 109.784,265.415 109.451,267.081 108.5,268.5C 108.721,265.721 108.388,263.054 107.5,260.5 Z"/></g>
<g><path style="opacity:1" fill="#a4a5a4" d="M 221.5,262.5 C 222.776,263.386 222.776,264.386 221.5,265.5C 220.913,264.767 220.913,263.767 221.5,262.5 Z"/></g>
<g><path style="opacity:1" fill="#d2d3d3" d="M 107.5,260.5 C 108.388,263.054 108.721,265.721 108.5,268.5C 107.377,272.629 105.377,276.295 102.5,279.5C 99.1409,279.698 97.3076,281.365 97,284.5C 102.026,288.428 107.526,291.428 113.5,293.5C 115.713,295.312 118.047,295.645 120.5,294.5C 131.107,294.161 141.441,295.161 151.5,297.5C 146.029,302.801 140.362,307.967 134.5,313C 133.5,313.5 132.5,314 131.5,314.5C 129.517,313.018 127.684,311.351 126,309.5C 125.79,311.058 125.29,312.391 124.5,313.5C 125.021,310.364 124.021,308.03 121.5,306.5C 121.082,307.222 120.416,307.722 119.5,308C 122.875,309.029 124.042,311.196 123,314.5C 120.595,314.964 118.095,315.131 115.5,315C 118.035,315.928 119.035,317.762 118.5,320.5C 115.333,320.6 112.333,319.933 109.5,318.5C 108.571,319.689 108.238,321.022 108.5,322.5C 106.259,322.046 104.259,322.046 102.5,322.5C 99.0078,321.59 96.0078,319.924 93.5,317.5C 92.2842,315.549 90.6175,314.049 88.5,313C 89.1667,312.667 89.8333,312.333 90.5,312C 89.1667,311.667 87.8333,311.333 86.5,311C 83.9023,306.567 80.2356,303.4 75.5,301.5C 73.0515,298.444 70.0515,296.111 66.5,294.5C 65.1667,293.5 63.8333,292.5 62.5,291.5C 60.6243,288.079 59.6243,284.412 59.5,280.5C 61.481,277.064 62.981,273.397 64,269.5C 65.2568,267.254 67.0901,265.921 69.5,265.5C 77.5633,267.509 85.5633,268.176 93.5,267.5C 94.8474,268.028 96.1807,268.195 97.5,268C 99.5977,265.146 101.931,262.479 104.5,260C 105.749,259.26 106.749,259.427 107.5,260.5 Z"/></g>
<g><path style="opacity:1" fill="#f6b1b3" d="M 127.5,265.5 C 128.906,265.973 129.573,266.973 129.5,268.5C 128.094,268.027 127.427,267.027 127.5,265.5 Z"/></g>
<g><path style="opacity:1" fill="#dfdfe0" d="M 113.5,231.5 C 115.199,231.34 116.866,231.506 118.5,232C 121.788,236.077 124.955,240.244 128,244.5C 127.85,242.494 127.35,240.494 126.5,238.5C 128.143,238.48 129.476,239.147 130.5,240.5C 131.386,239.675 131.719,238.675 131.5,237.5C 133.667,243.79 136,250.124 138.5,256.5C 138.526,253.852 138.859,251.185 139.5,248.5C 140.167,248.5 140.833,248.5 141.5,248.5C 141.751,253.443 144.085,255.109 148.5,253.5C 150.527,255.847 153.194,257.181 156.5,257.5C 156.5,258.5 156.5,259.5 156.5,260.5C 163.016,261.98 169.35,263.98 175.5,266.5C 176.927,265.999 176.594,262.666 174.5,256.5C 176.993,256.976 178.993,258.31 180.5,260.5C 181.574,262.982 182.908,265.316 184.5,267.5C 185.466,269.396 185.799,271.396 185.5,273.5C 184.167,273.5 182.833,273.5 181.5,273.5C 179.453,273.489 177.453,273.156 175.5,272.5C 168.235,274.816 160.902,276.816 153.5,278.5C 151.983,278.489 150.816,277.823 150,276.5C 145.167,269.5 140.333,262.5 135.5,255.5C 120.848,254.501 106.182,254.167 91.5,254.5C 98.8333,246.833 106.167,239.167 113.5,231.5 Z"/></g>
<g><path style="opacity:1" fill="#e38483" d="M 115.5,233.5 C 119.554,235.281 120.221,237.781 117.5,241C 118.328,241.915 119.328,242.581 120.5,243C 119.253,244.458 119.253,245.958 120.5,247.5C 119.072,251.378 117.572,251.378 116,247.5C 110.34,249.047 109.507,247.88 113.5,244C 112.715,240.339 113.382,236.839 115.5,233.5 Z"/></g>
<g><path style="opacity:0.986" fill="#e93132" d="M 129.5,268.5 C 129.573,266.973 128.906,265.973 127.5,265.5C 126.952,263.606 125.952,261.94 124.5,260.5C 125.833,259.5 127.167,258.5 128.5,257.5C 132.87,261.706 136.703,266.372 140,271.5C 141.09,274.579 140.257,276.912 137.5,278.5C 135.159,274.835 132.493,271.501 129.5,268.5 Z"/></g>
<g><path style="opacity:1" fill="#fbe4e4" d="M 129.5,262.5 C 133.445,264.734 135.612,268.068 136,272.5C 133.19,269.536 131.024,266.202 129.5,262.5 Z"/></g>
<g><path style="opacity:1" fill="#e93031" d="M 127.5,265.5 C 127.427,267.027 128.094,268.027 129.5,268.5C 130.146,270.156 130.813,271.823 131.5,273.5C 130.326,276.525 130.993,279.192 133.5,281.5C 131.652,284.478 129.652,284.812 127.5,282.5C 128.195,285.116 127.195,287.116 124.5,288.5C 121.843,285.506 121.177,285.839 122.5,289.5C 121.442,291.112 120.108,291.945 118.5,292C 114.639,286.972 110.972,281.806 107.5,276.5C 108.002,275.479 108.668,275.312 109.5,276C 111.667,278.167 113.833,280.333 116,282.5C 115.369,278.894 113.869,275.561 111.5,272.5C 111.808,271.692 112.308,271.025 113,270.5C 125.602,289.462 126.436,288.962 115.5,269C 116,268.5 116.5,268 117,267.5C 120.369,271.037 123.869,274.371 127.5,277.5C 125.515,273.544 123.015,269.878 120,266.5C 119.53,265.423 119.697,264.423 120.5,263.5C 121.265,263.077 122.098,262.743 123,262.5C 124.643,263.315 126.143,264.315 127.5,265.5 Z"/></g>
<g><path style="opacity:1" fill="#fce6e6" d="M 124.5,267.5 C 126.446,268.254 127.279,269.588 127,271.5C 125.519,270.529 124.685,269.196 124.5,267.5 Z"/></g>
<g><path style="opacity:1" fill="#f49396" d="M 121.5,275.5 C 123.446,276.254 124.279,277.588 124,279.5C 122.519,278.529 121.685,277.196 121.5,275.5 Z"/></g>
<g><path style="opacity:1" fill="#f5abaf" d="M 127.5,277.5 C 129.446,278.254 130.279,279.588 130,281.5C 128.519,280.529 127.685,279.196 127.5,277.5 Z"/></g>
<g><path style="opacity:1" fill="#0f0f10" d="M 102.5,279.5 C 106.167,284.167 109.833,288.833 113.5,293.5C 107.526,291.428 102.026,288.428 97,284.5C 97.3076,281.365 99.1409,279.698 102.5,279.5 Z"/></g>
<g><path style="opacity:1" fill="#757675" d="M 191.5,279.5 C 193.288,278.378 195.288,278.211 197.5,279C 197.167,279.333 196.833,279.667 196.5,280C 197.357,280.689 198.023,281.522 198.5,282.5C 195.985,283.762 192.985,284.428 189.5,284.5C 189.5,283.5 189.5,282.5 189.5,281.5C 190.675,281.719 191.675,281.386 192.5,280.5C 192.376,279.893 192.043,279.56 191.5,279.5 Z"/></g>
<g><path style="opacity:1" fill="#1e1e1e" d="M 192.5,293.5 C 191.833,293.5 191.5,293.167 191.5,292.5C 191.328,291.508 191.662,290.842 192.5,290.5C 197.086,288.077 201.752,288.244 206.5,291C 215.189,292.791 221.189,289.624 224.5,281.5C 225.833,282.167 226.833,283.167 227.5,284.5C 223.576,288.802 218.909,292.136 213.5,294.5C 208.468,292.656 203.301,291.323 198,290.5C 195.345,290.124 193.512,291.124 192.5,293.5 Z"/></g>
<g><path style="opacity:1" fill="#c6c7c6" d="M 254.5,289.5 C 254.557,290.609 254.89,291.609 255.5,292.5C 250.894,297.797 246.56,303.463 242.5,309.5C 239.814,311.856 237.147,314.189 234.5,316.5C 233.749,315.427 232.749,315.26 231.5,316C 226.182,321.412 219.849,323.246 212.5,321.5C 208.917,320.482 205.25,319.649 201.5,319C 200.065,316.733 200.398,314.733 202.5,313C 201.906,312.536 201.239,312.369 200.5,312.5C 204.953,312.438 209.619,312.271 214.5,312C 217.446,311.194 220.112,309.861 222.5,308C 225.5,307.667 228.5,307.333 231.5,307C 236.5,302 241.5,297 246.5,292C 248.769,289.977 251.436,289.144 254.5,289.5 Z"/></g>
<g><path style="opacity:0.973" fill="#ede6e7" d="M 120.5,263.5 C 119.697,264.423 119.53,265.423 120,266.5C 123.015,269.878 125.515,273.544 127.5,277.5C 123.869,274.371 120.369,271.037 117,267.5C 116.5,268 116,268.5 115.5,269C 126.436,288.962 125.602,289.462 113,270.5C 112.308,271.025 111.808,271.692 111.5,272.5C 113.869,275.561 115.369,278.894 116,282.5C 113.833,280.333 111.667,278.167 109.5,276C 108.668,275.312 108.002,275.479 107.5,276.5C 110.972,281.806 114.639,286.972 118.5,292C 120.108,291.945 121.442,291.112 122.5,289.5C 121.177,285.839 121.843,285.506 124.5,288.5C 124.389,289.117 124.056,289.617 123.5,290C 135.007,290.169 146.341,290.669 157.5,291.5C 156.167,294.167 154.167,296.167 151.5,297.5C 141.441,295.161 131.107,294.161 120.5,294.5C 118.194,294.007 115.861,293.674 113.5,293.5C 109.833,288.833 106.167,284.167 102.5,279.5C 105.377,276.295 107.377,272.629 108.5,268.5C 109.451,267.081 109.784,265.415 109.5,263.5C 113.268,262.213 116.935,262.213 120.5,263.5 Z"/></g>
<g><path style="opacity:0.282" fill="#8c8c8c" d="M 63.5,295.5 C 64.209,294.596 65.209,294.263 66.5,294.5C 70.0515,296.111 73.0515,298.444 75.5,301.5C 72.7173,299.933 70.0507,298.1 67.5,296C 66.2068,295.51 64.8734,295.343 63.5,295.5 Z"/></g>
<g><path style="opacity:1" fill="#6e6f6f" d="M 113.5,293.5 C 115.861,293.674 118.194,294.007 120.5,294.5C 118.047,295.645 115.713,295.312 113.5,293.5 Z"/></g>
<g><path style="opacity:1" fill="#5c5c5c" d="M 191.5,292.5 C 191.5,293.167 191.833,293.5 192.5,293.5C 192.261,295.467 192.594,297.301 193.5,299C 196.279,299.561 198.946,300.394 201.5,301.5C 199.95,302.72 198.284,302.72 196.5,301.5C 190.878,300.569 189.212,297.569 191.5,292.5 Z"/></g>
<g><path style="opacity:1" fill="#6a6b6b" d="M 125.5,303.5 C 125.683,301.064 125.016,298.897 123.5,297C 123.833,296.833 124.167,296.667 124.5,296.5C 126.553,298.729 126.886,301.062 125.5,303.5 Z"/></g>
<g><path style="opacity:1" fill="#9c9d9d" d="M 125.5,303.5 C 124.552,304.978 123.219,305.978 121.5,306.5C 114.973,307.432 109.306,305.766 104.5,301.5C 105.167,301.167 105.833,300.833 106.5,300.5C 112.674,303.304 119.007,304.304 125.5,303.5 Z"/></g>
<g><path style="opacity:1" fill="#a4a5a5" d="M 196.5,301.5 C 198.284,302.72 199.95,302.72 201.5,301.5C 207.292,304.013 213.125,304.013 219,301.5C 219.5,301.833 220,302.167 220.5,302.5C 219.528,304.636 217.861,305.803 215.5,306C 209.047,306.85 202.714,306.35 196.5,304.5C 195.28,304.887 194.613,305.72 194.5,307C 195.52,309.026 197.187,310.359 199.5,311C 199.272,311.399 198.938,311.565 198.5,311.5C 195.523,311.359 193.856,309.859 193.5,307C 193.613,304.601 194.613,302.768 196.5,301.5 Z"/></g>
<g><path style="opacity:1" fill="#dc797d" d="M 130.5,301.5 C 132.312,301.771 133.978,302.438 135.5,303.5C 134.855,306.228 134.021,308.895 133,311.5C 130.832,310.371 130.332,308.871 131.5,307C 130.262,307.077 129.262,306.911 128.5,306.5C 129.167,305.833 129.833,305.167 130.5,304.5C 129.209,303.473 129.209,302.473 130.5,301.5 Z"/></g>
<g><path style="opacity:0.369" fill="#909191" d="M 75.5,301.5 C 80.2356,303.4 83.9023,306.567 86.5,311C 87.8333,311.333 89.1667,311.667 90.5,312C 89.8333,312.333 89.1667,312.667 88.5,313C 90.6175,314.049 92.2842,315.549 93.5,317.5C 91.7446,316.928 90.0779,316.094 88.5,315C 84.2997,310.301 79.9664,305.801 75.5,301.5 Z"/></g>
<g><path style="opacity:0.345" fill="#8a8a8a" d="M 121.5,306.5 C 124.021,308.03 125.021,310.364 124.5,313.5C 124.586,314.496 124.252,315.329 123.5,316C 122.062,316.219 120.729,316.719 119.5,317.5C 120.383,319.743 119.549,321.41 117,322.5C 114.029,320.39 111.529,320.557 109.5,323C 107.071,323.703 104.738,323.537 102.5,322.5C 104.259,322.046 106.259,322.046 108.5,322.5C 108.238,321.022 108.571,319.689 109.5,318.5C 112.333,319.933 115.333,320.6 118.5,320.5C 119.035,317.762 118.035,315.928 115.5,315C 118.095,315.131 120.595,314.964 123,314.5C 124.042,311.196 122.875,309.029 119.5,308C 120.416,307.722 121.082,307.222 121.5,306.5 Z"/></g>
<g><path style="opacity:0.286" fill="#8c8c8c" d="M 234.5,316.5 C 228.549,321.983 221.549,324.15 213.5,323C 212.944,322.617 212.611,322.117 212.5,321.5C 219.849,323.246 226.182,321.412 231.5,316C 232.749,315.26 233.749,315.427 234.5,316.5 Z"/></g>
</svg>
